<?xml version="1.0" encoding="UTF-8" standalone="no"?>
<svg
   width="2000"
   height="710"
   xml:space="preserve"
   overflow="hidden"
   version="1.1"
   id="svg236"
   viewBox="0 0 2222.2222 788.88888"
   xmlns="http://www.w3.org/2000/svg"
   xmlns:svg="http://www.w3.org/2000/svg"><defs
     id="defs214"><rect
       x="1629.6453"
       y="632.07153"
       width="1473.0015"
       height="278.93591"
       id="rect674" /><filter
       id="fx0"
       x="-178"
       y="-51.799999"
       width="2136"
       height="621.60004"
       filterUnits="userSpaceOnUse"
       primitiveUnits="userSpaceOnUse"><feComponentTransfer
         color-interpolation-filters="sRGB"
         id="feComponentTransfer194"><feFuncR
           type="discrete"
           tableValues="0 0"
           id="feFuncR186" /><feFuncG
           type="discrete"
           tableValues="0 0"
           id="feFuncG188" /><feFuncB
           type="discrete"
           tableValues="0 0"
           id="feFuncB190" /><feFuncA
           type="linear"
           slope="0.4"
           intercept="0"
           id="feFuncA192" /></feComponentTransfer><feGaussianBlur
         stdDeviation="3.70452 3.70452"
         id="feGaussianBlur196" /></filter><linearGradient
       x1="1770.73"
       y1="862.83698"
       x2="1770.73"
       y2="1159.84"
       gradientUnits="userSpaceOnUse"
       spreadMethod="reflect"
       id="fill1"
       gradientTransform="translate(1.3740685,40)"><stop
         offset="0"
         stop-color="#8525F4"
         id="stop199" /><stop
         offset="0.51"
         stop-color="#8525F4"
         id="stop201" /><stop
         offset="0.54"
         stop-color="#441D61"
         id="stop203" /><stop
         offset="0.64"
         stop-color="#8525F4"
         id="stop205" /><stop
         offset="0.66"
         stop-color="#441D61"
         id="stop207" /><stop
         offset="0.8483"
         stop-color="#441D61"
         id="stop209" /><stop
         offset="1"
         stop-color="#441D61"
         id="stop211" /></linearGradient></defs><g
     id="g738"><g
       transform="translate(-700.84435,-701.23498)"
       id="g234"><g
         aria-label="INTELLIGENCE  IN  MOTION"
         id="text216"
         style="font-style:italic;font-weight:700;font-size:80px;font-family:'Segoe UI', 'Segoe UI_MSFontService', sans-serif;letter-spacing:6px"><path
           d="m 1213.6959,1294.5566 h -9.7265 l 11.8359,-56.0156 h 9.7656 z"
           style="font-weight:600;font-family:'Segoe UI';-inkscape-font-specification:'Segoe UI, Semi-Bold Italic'"
           id="path740" /><path
           d="m 1281.7272,1294.5566 h -9.375 l -19.1016,-40.2343 q -0.2344,-0.5078 -0.8203,-1.9532 -0.5469,-1.4453 -0.6641,-2.0703 h -0.2343 l -0.3516,2.6563 -0.4688,2.8515 -8.2421,38.75 h -9.1797 l 11.8359,-56.0156 h 10.1953 l 18.711,40.0391 q 0.8984,1.9922 1.289,3.2812 h 0.1563 q 0.1953,-2.6953 0.7422,-5.1953 l 8.125,-38.125 h 9.2578 z"
           style="font-weight:600;font-family:'Segoe UI';-inkscape-font-specification:'Segoe UI, Semi-Bold Italic'"
           id="path742" /><path
           d="m 1347.5709,1246.666 h -15.8594 l -10.1171,47.8906 h -9.6875 l 10.1171,-47.8906 h -16.1328 l 1.7578,-8.125 h 41.6797 z"
           style="font-weight:600;font-family:'Segoe UI';-inkscape-font-specification:'Segoe UI, Semi-Bold Italic'"
           id="path744" /><path
           d="m 1392.2428,1246.666 h -20.5859 l -3.3594,15.8594 h 19.1406 l -1.7578,8.125 h -19.1016 l -3.3984,15.8203 h 21.9141 l -1.6797,8.0859 h -31.6407 l 11.875,-56.0156 h 30.3516 z"
           style="font-weight:600;font-family:'Segoe UI';-inkscape-font-specification:'Segoe UI, Semi-Bold Italic'"
           id="path746" /><path
           d="m 1430.1569,1294.5566 h -31.25 l 11.875,-56.0156 h 9.7656 l -10.1563,47.7735 h 21.4844 z"
           style="font-weight:600;font-family:'Segoe UI';-inkscape-font-specification:'Segoe UI, Semi-Bold Italic'"
           id="path748" /><path
           d="m 1475.1412,1294.5566 h -31.25 l 11.875,-56.0156 h 9.7657 l -10.1563,47.7735 h 21.4844 z"
           style="font-weight:600;font-family:'Segoe UI';-inkscape-font-specification:'Segoe UI, Semi-Bold Italic'"
           id="path750" /><path
           d="m 1498.6022,1294.5566 h -9.7266 l 11.8359,-56.0156 h 9.7657 z"
           style="font-weight:600;font-family:'Segoe UI';-inkscape-font-specification:'Segoe UI, Semi-Bold Italic'"
           id="path752" /><path
           d="m 1568.9381,1250.2207 q -2.8906,-1.9922 -6.9531,-3.1641 -4.0235,-1.2109 -8.3594,-1.2109 -6.7969,0 -12.0312,3.0469 -5.1954,3.0078 -8.0469,8.5156 -2.8125,5.5078 -2.8125,12.6172 0,8.0469 4.2969,12.6953 4.3359,4.6484 11.7968,4.6484 4.2188,0 7.8516,-1.3281 l 2.8906,-13.8281 h -12.1875 l 1.7188,-7.9688 h 21.8359 l -5.7812,27.1094 q -8.0469,4.2188 -17.5782,4.2188 -7.5,0 -13.2031,-3.086 -5.6641,-3.125 -8.7109,-8.789 -3.0078,-5.7032 -3.0078,-13.0078 0,-9.5704 4.1406,-17.1875 4.1406,-7.6172 11.7187,-11.7579 7.6172,-4.1406 17.8125,-4.1406 8.3985,0 16.4844,3.4375 z"
           style="font-weight:600;font-family:'Segoe UI';-inkscape-font-specification:'Segoe UI, Semi-Bold Italic'"
           id="path754" /><path
           d="m 1620.524,1246.666 h -20.5859 l -3.3594,15.8594 h 19.1407 l -1.7579,8.125 H 1594.86 l -3.3985,15.8203 h 21.9141 l -1.6797,8.0859 h -31.6406 l 11.875,-56.0156 h 30.3516 z"
           style="font-weight:600;font-family:'Segoe UI';-inkscape-font-specification:'Segoe UI, Semi-Bold Italic'"
           id="path756" /><path
           d="m 1675.6256,1294.5566 h -9.375 l -19.1016,-40.2343 q -0.2343,-0.5078 -0.8203,-1.9532 -0.5468,-1.4453 -0.664,-2.0703 h -0.2344 l -0.3516,2.6563 -0.4687,2.8515 -8.2422,38.75 h -9.1797 l 11.8359,-56.0156 h 10.1954 l 18.7109,40.0391 q 0.8984,1.9922 1.2891,3.2812 h 0.1562 q 0.1953,-2.6953 0.7422,-5.1953 l 8.125,-38.125 h 9.2578 z"
           style="font-weight:600;font-family:'Segoe UI';-inkscape-font-specification:'Segoe UI, Semi-Bold Italic'"
           id="path758" /><path
           d="m 1744.3209,1249.9863 q -6.5234,-3.9062 -13.5547,-3.9062 -6.7968,0 -12.1093,3.125 -5.2735,3.0859 -8.1641,8.5937 -2.8906,5.5078 -2.8906,12.4219 0,8.0469 4.414,12.5 4.4532,4.4141 12.0313,4.4141 3.8672,0 7.2656,-0.8594 3.3984,-0.8594 7.0703,-2.8516 l -2.0703,9.375 q -6.2891,2.7344 -14.5703,2.7344 -7.3047,0 -12.8516,-3.0078 -5.5078,-3.0469 -8.4765,-8.5938 -2.9297,-5.5859 -2.9297,-12.8515 0,-9.7656 4.1797,-17.461 4.2187,-7.7343 11.875,-11.875 7.6562,-4.1406 17.7343,-4.1406 7.8907,0 15.0782,3.0469 z"
           style="font-weight:600;font-family:'Segoe UI';-inkscape-font-specification:'Segoe UI, Semi-Bold Italic'"
           id="path760" /><path
           d="m 1792.5865,1246.666 h -20.5859 l -3.3594,15.8594 h 19.1407 l -1.7579,8.125 h -19.1015 l -3.3985,15.8203 h 21.9141 l -1.6797,8.0859 h -31.6406 l 11.875,-56.0156 h 30.3516 z"
           style="font-weight:600;font-family:'Segoe UI';-inkscape-font-specification:'Segoe UI, Semi-Bold Italic'"
           id="path762" /><path
           d="m 1864.9615,1294.5566 h -9.7265 l 11.8359,-56.0156 h 9.7656 z"
           style="font-weight:600;font-family:'Segoe UI';-inkscape-font-specification:'Segoe UI, Semi-Bold Italic'"
           id="path764" /><path
           d="m 1932.9928,1294.5566 h -9.375 l -19.1016,-40.2343 q -0.2343,-0.5078 -0.8203,-1.9532 -0.5469,-1.4453 -0.664,-2.0703 h -0.2344 l -0.3516,2.6563 -0.4687,2.8515 -8.2422,38.75 h -9.1797 l 11.8359,-56.0156 h 10.1953 l 18.711,40.0391 q 0.8984,1.9922 1.289,3.2812 h 0.1563 q 0.1953,-2.6953 0.7422,-5.1953 l 8.125,-38.125 h 9.2578 z"
           style="font-weight:600;font-family:'Segoe UI';-inkscape-font-specification:'Segoe UI, Semi-Bold Italic'"
           id="path766" /><path
           d="m 2062.399,1294.5566 h -8.9062 l 7.5391,-35.5468 q 1.0937,-4.9219 2.9687,-11.5625 h -0.2344 q -1.9922,4.414 -6.289,10.1172 l -15.8594,21.289 h -6.0156 l -6.4063,-20.5859 q -0.7031,-2.1485 -1.289,-5.2735 -0.586,-3.125 -0.6641,-5.5468 h -0.2734 q -1.3672,8.6328 -2.0313,11.6015 l -7.5781,35.5078 h -8.8281 l 11.875,-56.0156 h 11.4062 l 7.3047,23.0469 q 1.1719,3.7109 1.3672,6.9922 h 0.1953 q 2.1484,-4.6875 4.4141,-7.7344 l 16.7578,-22.3047 h 12.4609 z"
           style="font-weight:600;font-family:'Segoe UI';-inkscape-font-specification:'Segoe UI, Semi-Bold Italic'"
           id="path768" /><path
           d="m 2138.2037,1261.4707 q 0,9.0625 -3.8672,16.9922 -3.8281,7.8906 -10.625,12.5 -6.7968,4.5703 -16.1328,4.5703 -6.8359,0 -12.1093,-3.0078 -5.2344,-3.0078 -8.125,-8.5156 -2.8516,-5.5078 -2.8516,-12.461 0,-7.3437 2.3047,-13.5937 2.3047,-6.25 6.6797,-10.9766 4.414,-4.7656 9.8437,-7.0703 5.4688,-2.3047 11.9141,-2.3047 6.7578,0 11.9922,2.9688 5.2734,2.9297 8.125,8.3984 2.8515,5.4297 2.8515,12.5 z m -10.1562,0.3516 q 0,-7.2657 -3.75,-11.4844 -3.711,-4.2578 -10.0781,-4.2578 -5.3125,0 -9.9219,3.3594 -4.5703,3.3203 -7.1485,9.375 -2.539,6.0546 -2.539,12.6953 0,7.1484 3.6328,11.4062 3.6719,4.2188 10.1172,4.2188 5.5859,0 10.039,-3.2813 4.4922,-3.2812 7.0704,-9.414 2.5781,-6.1329 2.5781,-12.6172 z"
           style="font-weight:600;font-family:'Segoe UI';-inkscape-font-specification:'Segoe UI, Semi-Bold Italic'"
           id="path770" /><path
           d="m 2190.7272,1246.666 h -15.8594 l -10.1172,47.8906 h -9.6875 l 10.1172,-47.8906 h -16.1328 l 1.7578,-8.125 h 41.6797 z"
           style="font-weight:600;font-family:'Segoe UI';-inkscape-font-specification:'Segoe UI, Semi-Bold Italic'"
           id="path772" /><path
           d="m 2204.6569,1294.5566 h -9.7266 l 11.8359,-56.0156 h 9.7657 z"
           style="font-weight:600;font-family:'Segoe UI';-inkscape-font-specification:'Segoe UI, Semi-Bold Italic'"
           id="path774" /><path
           d="m 2280.4225,1261.4707 q 0,9.0625 -3.8672,16.9922 -3.8281,7.8906 -10.625,12.5 -6.7969,4.5703 -16.1328,4.5703 -6.836,0 -12.1094,-3.0078 -5.2344,-3.0078 -8.125,-8.5156 -2.8516,-5.5078 -2.8516,-12.461 0,-7.3437 2.3047,-13.5937 2.3047,-6.25 6.6797,-10.9766 4.4141,-4.7656 9.8438,-7.0703 5.4687,-2.3047 11.914,-2.3047 6.7578,0 11.9922,2.9688 5.2735,2.9297 8.125,8.3984 2.8516,5.4297 2.8516,12.5 z m -10.1563,0.3516 q 0,-7.2657 -3.75,-11.4844 -3.7109,-4.2578 -10.0781,-4.2578 -5.3125,0 -9.9219,3.3594 -4.5703,3.3203 -7.1484,9.375 -2.5391,6.0546 -2.5391,12.6953 0,7.1484 3.6328,11.4062 3.6719,4.2188 10.1172,4.2188 5.586,0 10.0391,-3.2813 4.4922,-3.2812 7.0703,-9.414 2.5781,-6.1329 2.5781,-12.6172 z"
           style="font-weight:600;font-family:'Segoe UI';-inkscape-font-specification:'Segoe UI, Semi-Bold Italic'"
           id="path776" /><path
           d="m 2339.1959,1294.5566 h -9.375 l -19.1015,-40.2343 q -0.2344,-0.5078 -0.8204,-1.9532 -0.5468,-1.4453 -0.664,-2.0703 h -0.2344 l -0.3516,2.6563 -0.4687,2.8515 -8.2422,38.75 h -9.1797 l 11.836,-56.0156 h 10.1953 l 18.7109,40.0391 q 0.8984,1.9922 1.2891,3.2812 h 0.1562 q 0.1953,-2.6953 0.7422,-5.1953 l 8.125,-38.125 h 9.2578 z"
           style="font-weight:600;font-family:'Segoe UI';-inkscape-font-specification:'Segoe UI, Semi-Bold Italic'"
           id="path778" /></g><g
         aria-label=" "
         id="text218"
         style="font-style:italic;font-weight:700;font-size:83px;font-family:'Segoe UI', 'Segoe UI_MSFontService', sans-serif" /><g
         filter="url(#fx0)"
         transform="translate(919,958)"
         id="g224"><g
           id="g222"><path
             d="m 328.455,47.3796 c -6.459,0 -12.594,1.4935 -18.407,4.4805 -5.812,2.987 -10.979,7.1445 -15.5,12.4726 -2.745,3.2292 -5.166,6.9427 -7.265,11.1406 -2.099,4.198 -3.875,8.6381 -5.328,13.3204 -1.454,4.6823 -2.564,9.4655 -3.33,14.3493 -0.767,4.884 -1.151,9.708 -1.151,14.471 0,6.539 0.828,12.392 2.483,17.559 1.654,5.166 4.016,9.505 7.083,13.017 3.068,3.512 6.762,6.196 11.081,8.053 4.319,1.857 9.142,2.785 14.47,2.785 6.62,0 12.937,-1.453 18.951,-4.359 6.015,-2.907 11.282,-7.226 15.803,-12.957 2.826,-3.391 5.288,-7.205 7.387,-11.444 2.099,-4.238 3.834,-8.658 5.207,-13.259 1.372,-4.602 2.422,-9.284 3.148,-14.047 0.727,-4.7634 1.09,-9.365 1.09,-13.805 0,-6.5391 -0.827,-12.392 -2.482,-17.5586 -1.655,-5.1667 -4.016,-9.5463 -7.084,-13.1387 -3.068,-3.5925 -6.802,-6.3372 -11.201,-8.2344 -4.4,-1.8971 -9.385,-2.8457 -14.955,-2.8457 z M 1585.42,16.1374 h 137.93 l -6.9,31.8477 h -48.93 l -30.03,141.8009 h -39.35 l 29.91,-141.8009 h -49.53 z m -172.96,0 h 39.48 l -14.89,69.2656 h 71.44 l 14.9,-69.2656 h 39.35 l -36.93,173.6486 h -39.36 l 14.78,-70.235 h -71.33 l -14.89,70.235 h -39.48 z m -254.04,0 h 39.48 l -36.69,173.6486 h -39.48 z m -330.572,0 h 38.75 l 52.07,106.1996 c 0.404,0.888 0.908,1.957 1.514,3.209 0.605,1.251 1.211,2.543 1.816,3.875 0.606,1.332 1.171,2.643 1.695,3.935 0.525,1.292 0.909,2.422 1.151,3.391 h 0.484 c 0.081,-1.211 0.202,-2.563 0.363,-4.057 0.162,-1.493 0.364,-3.007 0.606,-4.541 0.242,-1.534 0.504,-3.027 0.787,-4.48 0.283,-1.453 0.545,-2.745 0.787,-3.875 L 949.91,16.1374 h 36.934 L 950.152,189.786 H 914.43 L 860.059,79.4694 c -0.485,-0.9687 -1.01,-2.0989 -1.575,-3.3906 -0.565,-1.2916 -1.13,-2.6035 -1.695,-3.9355 -0.565,-1.3321 -1.09,-2.6035 -1.574,-3.8145 -0.484,-1.2109 -0.848,-2.3008 -1.09,-3.2695 h -0.727 c -0.403,2.987 -0.847,6.3372 -1.332,10.0508 -0.484,3.7135 -1.17,7.3867 -2.058,11.0195 l -22.16,103.6564 h -36.692 z m -78.49,0 h 39.477 L 752.143,189.786 h -39.476 z m -130.956,0 h 100.024 l -6.781,31.8477 h -60.668 l -8.235,39.1132 h 56.551 l -6.902,31.9687 h -56.309 l -8.476,38.992 h 64.785 l -6.782,31.727 h -104.14 z m -183.769,0 h 40.082 l 11.746,120.1246 c 0.242,2.826 0.384,5.712 0.424,8.659 0.04,2.946 -0.182,5.671 -0.666,8.173 h 0.969 c 0.726,-2.341 1.675,-4.964 2.845,-7.871 1.171,-2.906 2.604,-6.054 4.299,-9.445 L 554.637,16.1374 h 43.109 L 500.024,189.786 h -43.11 z m -384.685,0 h 46.5001 l 17.8009,60.3047 c 0.565,1.9375 1.09,4.0163 1.574,6.2363 0.484,2.2201 0.888,4.4401 1.211,6.6602 0.323,2.22 0.565,4.3594 0.727,6.418 0.161,2.0586 0.242,3.8951 0.242,5.5094 h 0.605 c 0.888,-1.7757 1.837,-3.7738 2.846,-5.9938 1.009,-2.2201 2.058,-4.4805 3.148,-6.7813 1.09,-2.3007 2.241,-4.5208 3.452,-6.6601 1.21,-2.1393 2.421,-4.0163 3.632,-5.6309 l 44.321,-60.0625 h 50.375 L 189.448,189.786 H 154.331 L 176.37,85.8874 c 2.422,-11.0599 5.57,-23.4518 9.445,-37.1758 h -0.969 c -1.13,2.5834 -2.32,5.1667 -3.572,7.75 -1.251,2.5834 -2.482,5.0254 -3.693,7.3262 -1.211,2.3008 -2.341,4.3594 -3.391,6.1758 -1.049,1.8164 -1.978,3.2897 -2.785,4.4199 l -46.5,63.3325 H 97.5379 L 79.4949,75.5945 c -0.4036,-1.211 -0.7871,-3.1283 -1.1504,-5.752 -0.3632,-2.6237 -0.5449,-5.3483 -0.5449,-8.1738 V 48.7116 h -1.0898 c -1.1302,7.5886 -2.2403,14.5716 -3.3301,20.9492 -1.0899,6.3777 -2.0788,11.7462 -2.9668,16.1055 L 48.2527,189.786 H 13.0145 Z M 1316.35,13.2312 c 5.49,0 10.71,0.3027 15.68,0.9082 4.96,0.6054 9.63,1.3926 13.99,2.3613 4.35,0.9688 8.37,2.0384 12.04,3.209 3.68,1.1706 6.97,2.3209 9.87,3.4512 l -7.75,35.7226 c -2.5,-1.6953 -5.41,-3.3301 -8.72,-4.9043 -3.31,-1.5742 -6.92,-2.9466 -10.83,-4.1172 -3.92,-1.1705 -8.08,-2.1191 -12.48,-2.8457 -4.4,-0.7265 -8.94,-1.0898 -13.62,-1.0898 -10.09,0 -19.19,1.6347 -27.31,4.9043 -8.11,3.2695 -15.01,7.8711 -20.7,13.8047 -5.69,5.9336 -10.05,13.0781 -13.08,21.4336 -3.03,8.3554 -4.54,17.6189 -4.54,27.7909 0,7.346 1.01,13.926 3.03,19.738 2.01,5.813 4.9,10.697 8.65,14.653 3.76,3.955 8.3,6.983 13.63,9.082 5.33,2.099 11.26,3.148 17.8,3.148 4.36,0 7.97,-0.262 10.84,-0.787 2.86,-0.525 5.46,-1.15 7.81,-1.877 l 7.38,-35.238 h -35.24 l 6.66,-31.2424 h 74.24 l -18.65,88.0354 c -3.47,1.695 -7.27,3.33 -11.39,4.904 -4.11,1.574 -8.59,3.007 -13.44,4.299 -4.84,1.292 -10.05,2.321 -15.62,3.088 -5.57,0.767 -11.58,1.15 -18.04,1.15 -12.43,0 -23.55,-1.857 -33.36,-5.57 -9.81,-3.714 -18.07,-8.961 -24.77,-15.742 -6.7,-6.782 -11.82,-14.915 -15.38,-24.401 -3.55,-9.485 -5.32,-19.96 -5.32,-31.424 0,-9.041 1.01,-17.8608 3.02,-26.4585 2.02,-8.5977 5.03,-16.6908 9.03,-24.2793 3.99,-7.5885 9,-14.5514 15.01,-20.8887 6.02,-6.3372 13.04,-11.7864 21.07,-16.3476 8.03,-4.5612 17.1,-8.1133 27.19,-10.6563 10.09,-2.5429 21.19,-3.8144 33.3,-3.8144 z m -245.19,0 c 4.76,0 9.36,0.2623 13.8,0.7871 4.44,0.5247 8.68,1.2311 12.72,2.1191 4.03,0.8881 7.83,1.8972 11.38,3.0274 3.55,1.1302 6.78,2.3007 9.69,3.5117 l -6.66,33.664 c -2.51,-1.5338 -5.27,-3.0475 -8.3,-4.541 -3.03,-1.4935 -6.26,-2.8053 -9.69,-3.9355 -3.43,-1.1302 -7.04,-2.0586 -10.83,-2.7852 -3.8,-0.7265 -7.75,-1.0898 -11.87,-1.0898 -4.6,0 -8.48,0.6256 -11.63,1.8769 -3.15,1.2513 -5.65,2.8054 -7.5,4.6621 -1.86,1.8568 -3.19,3.8549 -4,5.9942 -0.81,2.1393 -1.21,4.1373 -1.21,5.9941 0,2.6641 0.42,5.1062 1.27,7.3262 0.85,2.22 2.18,4.3594 4,6.418 1.81,2.0586 4.19,4.1575 7.14,6.2968 2.95,2.1394 6.52,4.5007 10.72,7.084 5.49,3.3907 10.35,6.8014 14.59,10.2324 4.24,3.4313 7.85,7.1043 10.84,11.0193 2.98,3.916 5.24,8.174 6.78,12.776 1.53,4.601 2.3,9.768 2.3,15.5 0,3.31 -0.38,6.942 -1.15,10.898 -0.77,3.956 -2.08,7.932 -3.94,11.928 -1.85,3.996 -4.42,7.851 -7.69,11.564 -3.27,3.714 -7.36,6.983 -12.29,9.809 -4.92,2.825 -10.84,5.106 -17.74,6.842 -6.9,1.735 -14.95,2.603 -24.16,2.603 -5.16,0 -10.19,-0.343 -15.07,-1.029 -4.89,-0.686 -9.53,-1.615 -13.93,-2.785 -4.4,-1.171 -8.49,-2.483 -12.289,-3.936 -3.794,-1.453 -7.144,-2.946 -10.05,-4.48 l 6.66,-34.391 c 2.987,2.18 6.236,4.238 9.749,6.176 3.51,1.937 7.18,3.633 11.02,5.086 3.83,1.453 7.81,2.583 11.93,3.39 4.11,0.808 8.27,1.211 12.47,1.211 4.6,0 8.52,-0.504 11.74,-1.513 3.23,-1.009 5.86,-2.402 7.88,-4.178 2.01,-1.776 3.47,-3.835 4.36,-6.176 0.88,-2.341 1.33,-4.844 1.33,-7.508 0,-2.664 -0.43,-5.065 -1.27,-7.205 -0.85,-2.139 -2.24,-4.198 -4.18,-6.175 -1.94,-1.978 -4.5,-4.037 -7.69,-6.176 -3.19,-2.14 -7.09,-4.541 -11.69,-7.205 -4.92,-2.745 -9.4,-5.712 -13.44,-8.901 -4.03,-3.189 -7.51,-6.741 -10.41,-10.656 -2.91,-3.9153 -5.17,-8.2747 -6.78,-13.0781 -1.62,-4.8034 -2.43,-10.1517 -2.43,-16.0449 0,-6.7005 1.26,-13.28 3.76,-19.7383 2.5,-6.4583 6.42,-12.2305 11.74,-17.3164 5.33,-5.0859 12.13,-9.1829 20.41,-12.291 8.27,-3.1081 18.14,-4.6621 29.61,-4.6621 z m -738.225,0 c 10.737,0 20.566,1.6953 29.486,5.0859 8.921,3.3906 16.57,8.2949 22.948,14.7129 6.377,6.418 11.342,14.2487 14.894,23.4922 3.552,9.2435 5.328,19.6777 5.328,31.3027 0,6.9427 -0.605,13.9261 -1.816,20.9491 -1.211,7.024 -3.007,13.825 -5.389,20.404 -2.381,6.58 -5.368,12.897 -8.961,18.952 -3.592,6.054 -7.77,11.584 -12.533,16.589 -4.036,4.279 -8.436,8.154 -13.199,11.625 -4.763,3.472 -9.95,6.418 -15.561,8.84 -5.61,2.422 -11.685,4.299 -18.224,5.631 -6.539,1.332 -13.603,1.998 -21.192,1.998 -11.463,0 -21.696,-1.897 -30.697,-5.691 -9.001,-3.795 -16.61,-9.022 -22.826,-15.682 -6.216,-6.66 -10.959,-14.551 -14.229,-23.674 -3.269,-9.122 -4.904,-19.011 -4.904,-29.668 0,-7.507 0.646,-14.914 1.937,-22.2203 1.292,-7.306 3.25,-14.3295 5.874,-21.0704 2.623,-6.7408 5.893,-13.1588 9.808,-19.2539 3.916,-6.095 8.457,-11.6855 13.623,-16.7714 4.037,-3.8751 8.396,-7.3666 13.078,-10.4747 4.683,-3.108 9.728,-5.7923 15.137,-8.0527 5.409,-2.2604 11.221,-3.9961 17.438,-5.207 6.216,-1.211 12.876,-1.8164 19.98,-1.8164 z"
             fill="#ff0000"
             fill-rule="evenodd"
             id="path220" /></g></g><path
         d="m 1244.8741,1001.422 c -6.46,0 -12.6,1.494 -18.41,4.481 -5.81,2.987 -10.98,7.144 -15.5,12.472 -2.74,3.23 -5.17,6.943 -7.26,11.141 -2.1,4.198 -3.88,8.638 -5.33,13.324 -1.46,4.68 -2.57,9.46 -3.33,14.35 -0.77,4.88 -1.15,9.7 -1.15,14.47 0,6.54 0.82,12.39 2.48,17.56 1.65,5.16 4.02,9.5 7.08,13.01 3.07,3.51 6.76,6.2 11.08,8.06 4.32,1.85 9.15,2.78 14.47,2.78 6.62,0 12.94,-1.45 18.96,-4.36 6.01,-2.9 11.28,-7.22 15.8,-12.96 2.82,-3.39 5.29,-7.2 7.38,-11.44 2.1,-4.24 3.84,-8.66 5.21,-13.26 1.37,-4.6 2.42,-9.28 3.15,-14.05 0.73,-4.76 1.09,-9.36 1.09,-13.8 0,-6.539 -0.83,-12.392 -2.48,-17.559 -1.66,-5.167 -4.02,-9.546 -7.09,-13.139 -3.06,-3.592 -6.8,-6.337 -11.2,-8.234 -4.4,-1.897 -9.38,-2.846 -14.95,-2.846 z m 1256.96,-31.242 h 137.93 l -6.9,31.848 h -48.92 l -30.04,141.802 h -39.35 l 29.91,-141.802 h -49.53 z m -172.95,0 h 39.47 l -14.89,69.266 h 71.45 l 14.89,-69.266 h 39.36 l -36.94,173.65 h -39.35 l 14.77,-70.24 h -71.32 l -14.9,70.24 h -39.48 z m -254.05,0 h 39.48 l -36.69,173.65 h -39.48 z m -330.57,0 h 38.75 l 52.07,106.2 c 0.4,0.89 0.91,1.96 1.51,3.21 0.61,1.25 1.22,2.54 1.82,3.87 0.61,1.34 1.17,2.65 1.7,3.94 0.52,1.29 0.9,2.42 1.15,3.39 h 0.48 c 0.08,-1.21 0.2,-2.56 0.36,-4.06 0.17,-1.49 0.37,-3 0.61,-4.54 0.24,-1.53 0.5,-3.03 0.79,-4.48 0.28,-1.45 0.54,-2.74 0.78,-3.87 l 22.04,-103.66 h 36.94 l -36.69,173.65 h -35.73 l -54.37,-110.318 c -0.48,-0.969 -1.01,-2.099 -1.57,-3.39 -0.57,-1.292 -1.13,-2.604 -1.7,-3.936 -0.56,-1.332 -1.09,-2.603 -1.57,-3.814 -0.49,-1.211 -0.85,-2.301 -1.09,-3.27 h -0.73 c -0.4,2.987 -0.85,6.337 -1.33,10.051 -0.49,3.713 -1.17,7.387 -2.06,11.017 l -22.16,103.66 h -36.69 z m -78.49,0 h 39.48 l -36.69,173.65 h -39.48 z m -130.95,0 h 100.02 l -6.78,31.848 h -60.67 l -8.23,39.112 h 56.55 l -6.91,31.97 h -56.31 l -8.47,38.99 h 64.78 l -6.78,31.73 h -104.14 z m -183.77,0 h 40.08 l 11.74,120.13 c 0.25,2.82 0.39,5.71 0.43,8.65 0.04,2.95 -0.18,5.67 -0.67,8.18 h 0.97 c 0.73,-2.34 1.68,-4.97 2.85,-7.87 1.17,-2.91 2.6,-6.06 4.3,-9.45 l 60.3,-119.64 h 43.11 l -97.72,173.65 h -43.11 z m -384.68903,0 h 46.49903 l 17.8,60.305 c 0.57,1.937 1.09,4.016 1.58,6.236 0.48,2.22 0.88,4.439 1.21,6.659 0.32,2.22 0.56,4.36 0.72,6.42 0.16,2.06 0.25,3.89 0.25,5.51 h 0.6 c 0.89,-1.78 1.84,-3.77 2.85,-6 1.01,-2.22 2.06,-4.48 3.15,-6.78 1.08,-2.3 2.24,-4.517 3.45,-6.656 1.21,-2.14 2.42,-4.017 3.63,-5.631 l 44.32,-60.063 h 50.37 l -36.93,173.65 h -35.12 l 22.04,-103.9 c 2.42,-11.06 5.57,-23.452 9.45,-37.176 h -0.97 c -1.13,2.584 -2.32,5.167 -3.57,7.75 -1.25,2.584 -2.49,5.026 -3.7,7.327 -1.21,2.3 -2.34,4.359 -3.39,6.175 -1.05,1.817 -1.97,3.29 -2.78,4.42 l -46.5,63.334 h -27.37 l -18.04203,-62.123 c -0.404,-1.211 -0.787,-3.128 -1.151,-5.752 -0.363,-2.623 -0.545,-5.348 -0.545,-8.174 v -12.957 h -1.089 c -1.131,7.589 -2.241,14.572 -3.331,20.95 -1.089,6.377 -2.078,11.746 -2.966,16.105 l -22.16,104.021 h -35.239 z m 1266.39903,-2.906 c 5.49,0 10.72,0.303 15.68,0.908 4.97,0.606 9.63,1.393 13.99,2.361 4.36,0.969 8.37,2.039 12.05,3.209 3.67,1.171 6.96,2.321 9.87,3.452 l -7.75,35.722 c -2.51,-1.695 -5.41,-3.33 -8.72,-4.904 -3.31,-1.574 -6.93,-2.947 -10.84,-4.117 -3.92,-1.171 -8.07,-2.119 -12.47,-2.846 -4.4,-0.726 -8.94,-1.09 -13.63,-1.09 -10.09,0 -19.19,1.635 -27.3,4.905 -8.12,3.269 -15.02,7.871 -20.71,13.804 -5.69,5.934 -10.05,13.078 -13.08,21.432 -3.03,8.36 -4.54,17.62 -4.54,27.79 0,7.35 1.01,13.93 3.03,19.74 2.02,5.81 4.9,10.7 8.66,14.65 3.75,3.96 8.29,6.99 13.62,9.09 5.33,2.09 11.26,3.14 17.8,3.14 4.36,0 7.97,-0.26 10.84,-0.78 2.86,-0.53 5.47,-1.15 7.81,-1.88 l 7.39,-35.24 h -35.24 l 6.66,-31.24 h 74.23 l -18.65,88.03 c -3.47,1.7 -7.27,3.33 -11.38,4.91 -4.12,1.57 -8.6,3.01 -13.44,4.3 -4.85,1.29 -10.06,2.32 -15.63,3.09 -5.57,0.76 -11.58,1.15 -18.04,1.15 -12.43,0 -23.55,-1.86 -33.36,-5.57 -9.81,-3.72 -18.06,-8.97 -24.76,-15.75 -6.7,-6.78 -11.83,-14.91 -15.38,-24.4 -3.55,-9.48 -5.33,-19.96 -5.33,-31.42 0,-9.04 1.01,-17.86 3.03,-26.46 2.01,-8.597 5.02,-16.69 9.02,-24.279 3.99,-7.589 9,-14.551 15.01,-20.889 6.02,-6.337 13.04,-11.786 21.07,-16.347 8.04,-4.562 17.1,-8.114 27.19,-10.657 10.09,-2.543 21.19,-3.814 33.3,-3.814 z m -245.19,0 c 4.76,0 9.36,0.262 13.8,0.787 4.44,0.525 8.68,1.231 12.72,2.119 4.03,0.888 7.83,1.897 11.38,3.028 3.55,1.13 6.78,2.3 9.69,3.511 l -6.66,33.664 c -2.5,-1.534 -5.27,-3.047 -8.3,-4.541 -3.02,-1.493 -6.25,-2.805 -9.68,-3.935 -3.43,-1.13 -7.05,-2.059 -10.84,-2.785 -3.8,-0.727 -7.75,-1.09 -11.87,-1.09 -4.6,0 -8.48,0.625 -11.62,1.877 -3.15,1.251 -5.65,2.805 -7.51,4.662 -1.86,1.857 -3.19,3.855 -4,5.994 -0.8,2.139 -1.21,4.137 -1.21,5.994 0,2.664 0.43,5.106 1.27,7.326 0.85,2.22 2.18,4.36 4,6.418 1.82,2.059 4.2,4.158 7.14,6.297 2.95,2.139 6.52,4.5 10.72,7.08 5.49,3.39 10.35,6.81 14.59,10.24 4.24,3.43 7.85,7.1 10.84,11.02 2.99,3.91 5.25,8.17 6.78,12.77 1.54,4.6 2.3,9.77 2.3,15.5 0,3.31 -0.38,6.94 -1.15,10.9 -0.77,3.96 -2.08,7.93 -3.93,11.93 -1.86,3.99 -4.42,7.85 -7.69,11.56 -3.27,3.72 -7.37,6.99 -12.29,9.81 -4.93,2.83 -10.84,5.11 -17.74,6.84 -6.91,1.74 -14.96,2.61 -24.16,2.61 -5.17,0 -10.19,-0.35 -15.08,-1.03 -4.88,-0.69 -9.52,-1.62 -13.92,-2.79 -4.4,-1.17 -8.5,-2.48 -12.3,-3.93 -3.79,-1.46 -7.14,-2.95 -10.05,-4.48 l 6.66,-34.4 c 2.99,2.18 6.24,4.24 9.75,6.18 3.51,1.94 7.19,3.63 11.02,5.09 3.84,1.45 7.81,2.58 11.93,3.39 4.12,0.8 8.27,1.21 12.47,1.21 4.6,0 8.52,-0.51 11.75,-1.52 3.23,-1 5.85,-2.4 7.87,-4.17 2.02,-1.78 3.47,-3.84 4.36,-6.18 0.89,-2.34 1.33,-4.84 1.33,-7.51 0,-2.66 -0.42,-5.06 -1.27,-7.2 -0.85,-2.14 -2.24,-4.2 -4.18,-6.18 -1.94,-1.98 -4.5,-4.03 -7.69,-6.17 -3.19,-2.14 -7.08,-4.54 -11.68,-7.21 -4.93,-2.74 -9.41,-5.71 -13.45,-8.9 -4.03,-3.19 -7.5,-6.74 -10.41,-10.66 -2.91,-3.91 -5.17,-8.27 -6.78,-13.073 -1.62,-4.804 -2.42,-10.152 -2.42,-16.045 0,-6.701 1.25,-13.28 3.75,-19.739 2.5,-6.458 6.42,-12.23 11.75,-17.316 5.33,-5.086 12.13,-9.183 20.4,-12.291 8.28,-3.108 18.15,-4.662 29.61,-4.662 z m -738.22,0 c 10.73,0 20.56,1.695 29.48,5.086 8.92,3.39 16.57,8.295 22.95,14.713 6.38,6.418 11.34,14.248 14.9,23.492 3.55,9.243 5.32,19.678 5.32,31.305 0,6.94 -0.6,13.92 -1.81,20.95 -1.21,7.02 -3.01,13.82 -5.39,20.4 -2.38,6.58 -5.37,12.9 -8.96,18.95 -3.59,6.06 -7.77,11.59 -12.54,16.59 -4.03,4.28 -8.43,8.16 -13.19,11.63 -4.77,3.47 -9.95,6.42 -15.56,8.84 -5.62,2.42 -11.69,4.3 -18.23,5.63 -6.54,1.33 -13.6,2 -21.19,2 -11.46,0 -21.7,-1.9 -30.7,-5.7 -9,-3.79 -16.61,-9.02 -22.82,-15.68 -6.22,-6.66 -10.96,-14.55 -14.23,-23.67 -3.27,-9.12 -4.91,-19.01 -4.91,-29.67 0,-7.51 0.65,-14.91 1.94,-22.22 1.29,-7.31 3.25,-14.329 5.87,-21.07 2.63,-6.741 5.9,-13.159 9.81,-19.254 3.92,-6.095 8.46,-11.685 13.62,-16.771 4.04,-3.875 8.4,-7.367 13.08,-10.475 4.69,-3.108 9.73,-5.792 15.14,-8.053 5.41,-2.26 11.22,-3.996 17.44,-5.207 6.21,-1.211 12.87,-1.816 19.98,-1.816 z"
         fill="url(#fill1)"
         fill-rule="evenodd"
         id="path226"
         style="fill:url(#fill1)" /><path
         d="m 1658.8128,855.94665 c 0,-24.60647 19.942,-44.55361 44.5537,-44.55361 24.6116,0 44.5535,19.94714 44.5535,44.55361 0,24.60648 -19.9419,44.55361 -44.5535,44.55361 -24.6117,0 -44.5537,-19.94713 -44.5537,-44.55361 z"
         stroke="#441d61"
         stroke-width="6.875"
         stroke-miterlimit="8"
         fill="#2f0460"
         fill-rule="evenodd"
         id="path230" /><path
         d="m 1729.9734,855.94654 c 0,-24.60641 19.9418,-44.55349 44.5535,-44.55349 24.6117,0 44.5537,19.94708 44.5537,44.55349 0,24.6064 -19.942,44.55348 -44.5537,44.55348 -24.6117,0 -44.5535,-19.94708 -44.5535,-44.55348 z"
         stroke="#8525f4"
         stroke-width="6.875"
         stroke-miterlimit="8"
         fill="#8525f4"
         fill-rule="evenodd"
         id="path232" /><g
         transform="translate(881,802)"
         id="text672"
         style="font-style:italic;font-weight:600;font-size:80px;line-height:1.3;font-family:'Segoe UI';-inkscape-font-specification:'Segoe UI, Semi-Bold Italic';white-space:pre;shape-inside:url(#rect674);opacity:0.645621;fill:#ffffff;stroke:#ffffff;stroke-width:0;stroke-linejoin:bevel" /></g></g></svg>
